<?xml version="1.0" encoding="utf-8"?>
<!-- Generator: Adobe Illustrator 23.1.1, SVG Export Plug-In . SVG Version: 6.00 Build 0)  -->
<svg version="1.1" id="Layer_1" xmlns="http://www.w3.org/2000/svg" xmlns:xlink="http://www.w3.org/1999/xlink" x="0px" y="0px"
	 viewBox="0 0 733 280" style="enable-background:new 0 0 733 280;" xml:space="preserve">
<style type="text/css">
	.st0{fill:#00CA81;}
	.st1{font-family:'ArialRoundedMTBold';}
	.st2{font-size:151.6515px;}
	.st3{letter-spacing:-2;}
	.st4{fill:#FFFFFF;}
</style>
<text transform="matrix(1 0 0 1 304.6245 130.0264)" class="st0 st1 st2 st3">hello</text>
<g>
	<text transform="matrix(1 0 0 1 307.7448 258.7576)" class="st0 st1 st2 st3">friend</text>
</g>
<path class="st0" d="M256.96,269H37.04C24.87,269,15,259.13,15,246.96V38.04C15,25.87,24.87,16,37.04,16h219.92
	C269.13,16,279,25.87,279,38.04v208.92C279,259.13,269.13,269,256.96,269z"/>
<circle class="st4" cx="147.5" cy="148.5" r="101.5"/>
<path class="st0" d="M210.79,130c0,35.16-28.5,63.67-63.67,63.67S83.45,165.16,83.45,130"/>
<circle class="st0" cx="114.23" cy="102.89" r="13.77"/>
<circle class="st0" cx="178.51" cy="102.74" r="13.77"/>
</svg>
