<?xml version="1.0" encoding="utf-8"?>
<!-- Generator: Adobe Illustrator 23.1.1, SVG Export Plug-In . SVG Version: 6.00 Build 0)  -->
<svg version="1.1" id="Layer_1" xmlns="http://www.w3.org/2000/svg" xmlns:xlink="http://www.w3.org/1999/xlink" x="0px" y="0px"
	 viewBox="0 0 1366 768" style="enable-background:new 0 0 1366 768;" xml:space="preserve">
<style type="text/css">
	.st0{fill:#00CA96;}
</style>
<path class="st0" d="M-30,247c0,0,41,72,108,29s23-115,98-136s36-87,79-90S361-6,361-6L105-52L-50-22L-30,247z"/>
<path class="st0" d="M1082.22,790.99c0,0-66.56-49.34-15.84-110.7c50.73-61.36,116.93-9.04,146.77-80.98
	c29.84-71.94,90.69-25.3,98.83-67.63c8.14-42.33,68.31-98.52,68.31-98.52l14.96,259.67l-48.38,150.28L1082.22,790.99z"/>
</svg>
